<svg width="631" height="619" viewBox="0 0 631 619" fill="none" xmlns="http://www.w3.org/2000/svg">
<path fill-rule="evenodd" clip-rule="evenodd" d="M140.979 365.855C157.485 368.329 168.867 362.193 174.795 360.673C176.52 360.246 184.321 363.391 196.453 362.966C199.928 362.667 203.308 361.677 206.396 360.054C209.483 358.432 212.216 356.209 214.433 353.516C214.813 353.045 214.061 352.492 213.681 352.963C209.141 357.758 202.916 360.602 196.319 360.895C189.893 360.841 183.494 360.041 177.253 358.511C173.044 357.713 173.724 358.848 163.247 362.054C156.091 364.275 148.56 365.026 141.107 364.264C131.671 363.251 129.83 361.21 129.471 362.291C129.434 362.41 129.445 362.538 129.5 362.649C129.555 362.761 129.65 362.847 129.767 362.891C133.402 364.23 137.157 365.223 140.979 365.855ZM353.852 317.198C367.257 315.661 377.784 303.42 376.527 296.292C376.543 296.22 376.542 296.144 376.525 296.072C376.507 296 376.473 295.932 376.425 295.875C376.378 295.818 376.318 295.773 376.25 295.742C376.182 295.712 376.108 295.698 376.034 295.7C375.959 295.703 375.887 295.722 375.821 295.757C375.755 295.792 375.698 295.842 375.655 295.902C375.611 295.963 375.582 296.032 375.57 296.105C375.557 296.179 375.562 296.254 375.582 296.325C375.193 299.148 373.942 301.781 372.001 303.867C367.968 308.661 362.877 312.454 357.13 314.947C353.614 316.505 353.082 316.127 353.228 316.823C353.236 316.893 353.26 316.961 353.298 317.02C353.336 317.079 353.387 317.129 353.447 317.165C353.508 317.201 353.576 317.223 353.646 317.229C353.716 317.235 353.786 317.224 353.852 317.198ZM96.1769 377.16C96.2928 377.115 96.3861 377.027 96.4365 376.913C96.4869 376.8 96.4902 376.671 96.4457 376.555C96.4012 376.439 96.3125 376.346 96.1991 376.296C96.0857 376.245 95.957 376.242 95.8412 376.287C88.3852 378.177 80.6111 378.449 73.0412 377.085C69.7813 376.375 69.5749 375.711 69.261 376.333C69.2056 376.441 69.1929 376.566 69.2252 376.684C69.2576 376.801 69.3327 376.902 69.4358 376.967C76.7173 381.839 88.5671 381.211 96.1769 377.16ZM461.189 141.283C462.207 141.583 461.153 140.246 465.868 131.108C475.431 112.249 493.213 95.3899 511.473 84.3434C518.855 79.8732 519.51 80.2776 519.178 79.5262C519.115 79.4167 519.015 79.3338 518.896 79.293C518.776 79.2523 518.646 79.2564 518.53 79.3048C487.896 92.5853 466.348 118.671 460.863 140.684C460.841 140.744 460.833 140.809 460.838 140.873C460.843 140.937 460.861 140.999 460.892 141.056C460.923 141.113 460.965 141.162 461.016 141.201C461.067 141.24 461.126 141.268 461.189 141.283ZM552.935 162.392C539.077 152.745 517.51 148.648 500.52 147.168C489.169 146.059 477.73 146.234 466.419 147.691C466.355 147.698 466.292 147.716 466.236 147.746C466.179 147.777 466.129 147.818 466.088 147.867C466.047 147.917 466.017 147.974 465.998 148.036C465.979 148.097 465.973 148.162 465.979 148.226C466.008 149.049 466.162 148.219 477.09 148.264C499.491 148.273 534.73 152.348 552.291 163.178C552.943 163.491 553.465 162.709 552.935 162.392ZM453.178 325.56C451.235 326.624 449.142 327.386 446.97 327.823C446.913 327.799 446.852 327.786 446.79 327.786C446.729 327.785 446.667 327.797 446.61 327.82C446.553 327.843 446.501 327.878 446.457 327.921C446.413 327.965 446.378 328.016 446.353 328.073C446.329 328.13 446.317 328.191 446.316 328.253C446.316 328.315 446.328 328.376 446.351 328.433C446.374 328.491 446.409 328.543 446.452 328.587C446.495 328.631 446.547 328.666 446.604 328.69C447.226 329.11 447.937 329.38 448.681 329.477C449.425 329.574 450.182 329.496 450.891 329.249C451.599 329.001 452.24 328.592 452.763 328.053C453.285 327.515 453.675 326.861 453.9 326.146C453.978 326.05 454.014 325.927 454.001 325.804C453.989 325.682 453.927 325.569 453.832 325.492C453.736 325.414 453.613 325.378 453.491 325.391C453.368 325.404 453.256 325.465 453.178 325.56ZM83.2964 472.951C77.5535 473.671 78.648 476.166 84.3813 475.172C90.1145 474.178 86.9729 472.487 83.2964 472.951ZM173.185 458.45C172.581 458.518 171.983 458.63 171.396 458.787C168.136 459.817 168.907 460.919 172.171 460.866C178.512 460.674 178.778 457.827 173.185 458.45ZM82.502 539.144C80.0025 539.231 76.8805 540.714 81.0559 541.422C82.0717 541.536 83.0987 541.5 84.104 541.316C88.3656 540.129 84.7555 539.004 82.502 539.144ZM170.66 519.667C165.943 520.046 167.895 521.778 170.74 521.953C175.696 522.299 176.808 519.208 170.66 519.667ZM261.11 561.27C255.024 561.788 260.291 564.045 264.238 563.449C268.184 562.853 266.921 560.761 261.11 561.27ZM353.251 534.421C347.146 534.391 349.403 536.967 353.883 536.779C357.387 536.626 358.504 534.512 353.251 534.421ZM455.906 566.38C451.913 566.519 449.594 568.279 454.097 568.732C455.378 568.824 456.665 568.779 457.937 568.597C462.538 567.521 459.47 566.194 455.906 566.38ZM526.719 487.358C533.383 487.674 533.448 485.169 526.637 485.011C519.275 484.811 521.798 487.134 526.719 487.358ZM572.124 471.485C570.245 471.856 569.124 472.963 571.618 473.578C572.839 473.84 574.106 473.796 575.306 473.449C578.912 471.858 574.943 470.928 572.124 471.485ZM138.009 173.905C142.204 173.75 146.326 172.768 150.139 171.014C153.952 169.26 157.381 166.77 160.228 163.687C163.076 160.603 165.285 156.987 166.73 153.047C168.175 149.106 168.827 144.919 168.648 140.726C168.103 132.478 164.368 124.765 158.235 119.222C152.103 113.68 144.053 110.742 135.792 111.031C127.53 111.321 119.706 114.815 113.976 120.773C108.246 126.731 105.061 134.686 105.094 142.952C105.209 147.15 106.153 151.284 107.872 155.116C109.591 158.947 112.051 162.401 115.111 165.278C118.17 168.155 121.768 170.398 125.698 171.879C129.628 173.359 133.812 174.048 138.009 173.905ZM114.957 121.335C117.568 118.336 120.767 115.906 124.356 114.196C127.944 112.485 131.847 111.531 135.82 111.392C139.793 111.253 143.752 111.932 147.452 113.387C151.152 114.842 154.513 117.042 157.327 119.851C163.015 125.335 166.329 132.829 166.56 140.727C166.791 148.625 163.92 156.299 158.562 162.107C155.917 164.966 152.731 167.273 149.19 168.895C145.648 170.518 141.82 171.423 137.927 171.559C134.034 171.696 130.153 171.06 126.506 169.69C122.86 168.319 119.521 166.241 116.681 163.574C110.93 158.155 107.529 150.701 107.207 142.806C106.885 134.911 109.667 127.204 114.957 121.335ZM461.72 143.37L461.687 143.31L461.688 143.34L461.72 143.37ZM385.197 196.162C385.197 196.162 392.84 190.431 393.463 189.921C396.695 187.244 400.69 184.541 403.878 182.323C412.37 176.441 412.016 175.935 423.404 169.096C426.691 167.089 454.471 150.765 456.889 149.215C456.984 149.143 457.049 149.039 457.073 148.922C457.096 148.805 457.076 148.684 457.016 148.581C456.956 148.478 456.861 148.4 456.748 148.363C456.634 148.326 456.511 148.331 456.402 148.378C445.417 154.531 423.977 164.529 408.189 176.435C402.728 180.26 397.463 184.355 392.413 188.707C389.578 190.98 386.861 193.398 384.274 195.95C384.276 196.059 384.315 196.164 384.383 196.248C384.452 196.333 384.547 196.392 384.653 196.416C384.759 196.441 384.87 196.429 384.969 196.383C385.067 196.337 385.148 196.259 385.197 196.162ZM349.732 372.978C351.732 373.955 353.936 374.442 356.161 374.401C357.136 374.367 357.752 373.643 357.915 372.203C358.078 370.751 358.026 369.282 357.762 367.844C356.485 360.992 354.531 362.739 355.014 363.454C353.082 364.041 346.815 371.585 349.732 372.978ZM355.235 364.515C355.269 364.528 355.305 364.534 355.342 364.533C355.379 364.532 355.415 364.523 355.448 364.507C355.785 367.023 355.874 369.565 355.714 372.097C354.242 371.917 352.797 371.568 351.405 371.058C352.365 368.707 353.654 366.504 355.235 364.515Z" fill="black"/>
<path fill-rule="evenodd" clip-rule="evenodd" d="M510.186 177.44L517.04 170.089L520.884 179.628C521.151 180.29 518.611 179.22 555.874 193.143C556.461 193.367 556.096 193.38 564.911 189.775C566.495 200.126 566.366 199.948 566.778 200.361C569.307 202.866 589.224 222.585 592.05 224.836C597.423 229.256 607.685 196.364 596.137 179.464C572.724 145.341 544.193 135.872 503.306 134.344C495.239 134.077 477.428 137.906 469.526 139.708C487.033 128.932 486.27 129.814 486.182 129.054L485.32 120.996L492.914 121.707C493.402 121.69 490.337 123.934 540.229 88.0355C540.943 87.5222 540.777 88.0163 540.441 78.4147C547.527 76.8237 548.406 76.6708 548.707 76.5382C551.35 75.3164 572.109 65.922 574.396 64.1328C574.679 63.9507 574.88 63.6672 574.96 63.3407C575.039 63.0142 574.99 62.6698 574.823 62.3783C565.924 47.919 553.364 47.4433 537.007 50.9461C506.229 57.487 486.749 78.1286 467.939 103.111C462.231 111.328 458.855 120.938 458.171 130.92C445.55 111.281 424.877 104.833 403.515 97.0359C372.077 85.5939 302.979 87.2513 275.149 108.246C262.077 117.811 251.749 130.645 245.202 145.46C244.975 145.956 244.951 147.025 246.398 147.371C251.537 148.595 297.119 145.595 302.422 145.409C303.154 145.383 303.166 144.864 309.221 139.983C309.704 141.583 310.307 143.973 310.632 145.427C310.699 145.693 310.859 145.927 311.083 146.087C311.306 146.247 311.579 146.322 311.853 146.299C359.337 142.713 356.451 143.089 356.891 142.585C356.891 142.585 361.721 136.709 363.928 134.374C364.249 135.213 364.524 136.069 364.75 136.939C366.263 142.654 365.621 143.5 366.699 143.798C376.377 146.511 396.952 151.894 407.155 153.917C377.436 164.541 359.881 175.685 342.356 202.484C336.007 212.937 331.163 224.234 327.967 236.04C325.723 235.897 323.494 236.489 321.617 237.727C320.338 238.657 320.871 240.805 321.411 242.282C317.636 241.681 315.654 243.49 317.038 247.257C318.15 250.27 321.499 254.394 321.575 256.559C321.351 256.261 320.803 255.426 320.676 255.278C317.512 253.026 313.633 252.012 309.772 252.425C305.992 252.557 303.048 256.506 300.612 258.392C302.755 250.748 298.243 246.511 287.749 257.103C287.965 256.407 288.012 255.67 287.886 254.952C287.76 254.235 287.465 253.558 287.024 252.977C283.87 250.036 276.791 257.059 273.896 258.931C273.853 257.681 274.706 255.026 271.914 253.751C267.417 251.68 264.435 256.302 261.856 260.207C260.671 256.006 255.273 255.249 251.276 257.007C248.94 258.283 247.158 260.376 246.271 262.886C245.385 265.395 245.456 268.143 246.472 270.603C241.847 268.385 236.397 267.019 236.363 272.148C236.399 273.452 236.598 274.747 236.956 276.003C234.776 274.736 231.424 273.145 229.208 274.351C225.016 276.665 226.388 280.981 228.97 284.98C202.299 285.914 41.7079 294.591 27.9265 295.837C27.6742 295.906 27.4524 296.057 27.2972 296.268C27.142 296.478 27.0626 296.735 27.0717 296.996C27.0809 297.258 27.1781 297.508 27.3476 297.707C27.5172 297.906 27.749 298.042 28.0055 298.093C161.334 291.775 401.783 281.948 403.057 282.606C424.913 296.672 386.968 337.34 359.929 344.33C351.165 338.546 342.096 333.24 332.76 328.435C331.984 328.066 331.877 329.351 331.784 330.209C331.692 331.067 331.603 331.985 331.525 333.27C323.391 325.357 313.855 319.026 303.405 314.601C282.803 306.716 269.817 314.099 259.031 332.91C254.418 341.508 250.646 350.532 247.767 359.856C245.291 368.077 243.24 376.42 241.624 384.852C236.752 386.016 231.72 386.358 226.735 385.862C215.285 384.828 198.613 381.079 195.269 382.325C188.823 384.748 183.615 390.302 176.927 392.795C166.232 396.916 154.809 398.816 143.355 398.377C131.901 397.939 120.657 395.172 110.307 390.245C107.208 388.889 88.0354 395.664 83.6781 396.732C72.9037 399.307 45.018 393.448 28.7534 382.176C28.6502 382.13 28.5341 382.121 28.425 382.151C28.3159 382.181 28.2206 382.248 28.1554 382.34C28.0901 382.432 28.059 382.545 28.0673 382.657C28.0756 382.77 28.1229 382.877 28.201 382.958C44.7222 394.587 72.8277 400.622 83.9984 398.033C86.7225 397.389 107.544 390.647 109.653 391.611C120.184 396.694 131.64 399.578 143.322 400.087C155.004 400.596 166.667 398.72 177.6 394.572C184.59 391.977 189.527 386.555 195.975 384.193C198.536 383.248 215.787 386.947 226.625 387.941C231.521 388.476 236.473 388.189 241.275 387.092C240.138 392.961 236.399 413.448 236.234 417.452C236.205 417.661 236.221 417.875 236.281 418.078C236.341 418.281 236.443 418.469 236.581 418.63C237.116 419.099 238.093 419.096 244.559 418.991C243.265 429.108 243.391 428.34 242.691 429.28C239.566 432.733 236.202 435.961 232.623 438.941C230.403 440.911 227.591 444.275 228.996 446.912C229.843 448.438 231.827 448.46 233.559 448.247C233.588 449.07 233.644 450.655 234.444 450.841C235.796 451.099 248.959 450.515 251.214 450.406L253.668 453.372C250.476 458.977 229.171 497.231 229.943 503.582C230.192 505.466 233.916 506.342 235.947 506.82C235.587 507.871 235.227 508.921 234.889 509.726C234.551 510.532 234.613 510.56 234.469 510.809C234.325 511.058 222.932 514.265 217.852 518.227C214.523 520.785 214.981 523.394 216.846 524.366C221.947 527.087 249.419 525.514 250.887 523.845C252.824 521.641 254.061 512.534 254.477 509.589C256.635 509.922 258.839 509.772 260.932 509.15C270.699 500.634 279.725 491.303 287.91 481.257C291.521 483.297 295.343 485.239 299.371 486.959C296.443 490.51 265.073 528.048 264.83 530.712C264.489 534.05 274.22 537.402 276.994 535.566C277.828 534.987 279.936 532.411 312.79 491.921C319.232 493.854 325.837 495.196 332.523 495.93C343.107 497.075 353.757 497.498 364.399 497.194C376.639 503.357 391.424 510.744 400.866 515.418C366.165 561.557 367.82 559.149 367.85 560.003C367.906 561.618 370.372 563.18 371.774 563.985C373.175 564.791 375.841 565.979 377.247 565.167C379.31 563.935 410.405 522.897 411.952 520.859C429.646 529.395 444.67 536.62 448.639 538.404C449.911 539 450.904 537.714 451.624 536.499C452.502 534.933 453.241 533.294 453.833 531.599C453.911 531.338 453.898 531.059 453.794 530.807C453.691 530.555 453.505 530.346 453.266 530.215L418.429 512.361L438.475 486.085L543.071 539.46C543.327 539.56 543.608 539.583 543.877 539.524C544.146 539.466 544.393 539.33 544.585 539.133C546.388 536.566 547.85 533.776 548.933 530.832C549.259 529.691 548.636 529.316 547.857 528.855C547.704 528.861 485.879 496.784 446.003 476.207L466.746 448.93C471.993 448.965 477.185 447.86 481.962 445.69C486.74 443.52 490.988 440.338 494.414 436.363C494.842 439.889 495.154 442.685 495.375 444.631C495.405 444.735 495.47 444.826 495.557 444.889C495.645 444.952 495.752 444.985 495.86 444.981C495.968 444.977 496.072 444.937 496.155 444.868C496.239 444.799 496.296 444.704 496.32 444.598C496.03 441.556 495.71 438.515 495.383 435.292C503.019 425.869 505.744 412.192 505.44 400.026C508.618 399.316 511.746 398.402 514.805 397.287C514.926 397.283 515.041 397.231 515.123 397.142C515.206 397.053 515.25 396.935 515.246 396.814C515.242 396.693 515.19 396.578 515.101 396.495C515.012 396.412 514.894 396.368 514.773 396.373C511.809 396.515 508.862 396.904 505.963 397.536C518.041 381.64 539.034 353.651 542.586 348.766C553.601 401.849 555.63 442.337 556.915 445.924C556.938 446.564 557.869 447.02 557.816 445.495C557.827 445.414 557.824 445.332 557.807 445.252C555.767 429.698 553.478 393.979 544.072 346.761C569.917 311.766 568.761 312.752 568.117 311.798C566.833 309.982 561.899 308.537 558.481 308.535C558.146 308.546 558.733 307.885 551.12 317.948C547.829 317.209 542.979 316.402 537.181 315.568C534.255 303.463 531.031 291.582 527.365 279.289C594.754 278.516 591.136 278.917 591.625 278.045L594.958 278.234C595.031 278.25 595.106 278.249 595.178 278.231C595.25 278.213 595.318 278.179 595.375 278.132C595.432 278.084 595.477 278.024 595.508 277.956C595.538 277.888 595.553 277.814 595.55 277.74C595.547 277.666 595.528 277.593 595.493 277.527C595.458 277.462 595.408 277.405 595.348 277.361C595.287 277.318 595.218 277.289 595.145 277.276C595.071 277.263 594.996 277.268 594.925 277.289L591.561 277.101C591.559 272.676 590.763 268.248 586.533 266.871C589.079 265.5 593.254 263.583 591.403 260.383C589.551 257.182 585.314 260.81 583.569 260.657C583.194 258.656 586.319 252.046 580.17 250.736C577.94 250.798 575.716 250.978 573.505 251.274C574.561 249.192 576.659 245.487 576.277 243.273C575.952 241.85 574.693 240.765 571.4 241.704C570.735 241.91 568.391 242.939 566.729 243.424C567.052 242.915 567.319 242.374 567.527 241.809C568.01 239.026 567.407 236.164 565.843 233.811C562.123 228.662 557.114 232.896 552.885 235.028C553.638 233.607 554.023 232.019 554.005 230.411C553.752 227.551 550.498 226.994 547.813 227.881C545.602 228.804 543.467 229.899 541.427 231.157C542.272 229.879 542.605 228.329 542.36 226.817C542.114 225.304 541.309 223.939 540.103 222.994C538.201 221.84 533.55 223.223 531.445 224.121C534.303 218.588 533.043 213.963 530.456 211.551C527.868 209.139 522.184 211.536 519.615 211.382C520.229 210.468 520.757 209.499 521.193 208.488C521.676 205.744 521.073 202.92 519.513 200.612C519.172 200.113 518.706 199.714 518.161 199.454C517.615 199.195 517.011 199.084 516.409 199.134C513.361 199.241 508.29 203.447 507.372 202.502C506.453 201.558 507.216 198.052 504.11 196.513C501.004 194.974 497.476 196.196 497.661 201.469C492.022 189.459 486.605 179.456 481.769 171.202C511.807 178.39 509.659 178.068 510.186 177.44ZM249.489 522.277C246.103 523.189 221.053 524.219 217.652 522.11C216.396 519.347 232.97 513.334 235.065 512.131C235.931 511.612 236.679 508.565 237.082 506.994C242.432 508.181 247.854 509.01 253.313 509.478C252.689 511.697 250.829 520.46 249.489 522.277ZM469.286 104.101C488.118 79.7592 507.641 59.4518 537.482 53.1878C552.327 50.0738 563.891 50.0044 572.241 62.7129C568.264 65.0496 552.078 72.5748 547.868 74.3702L539.027 76.389C538.768 76.4527 538.538 76.6019 538.373 76.8125C538.209 77.0231 538.12 77.2828 538.122 77.5499L538.437 86.5419L492.734 120.065C483.951 119.366 484.222 119.265 483.839 119.644C483.455 120.024 483.534 119.655 484.647 128.772C482.617 130.064 473.18 135.979 466.196 140.466C458.537 142.26 460.299 142.015 458.891 141.912C458.5 128.986 461.344 114.359 469.286 104.101ZM367.826 141.989C367.38 138.603 366.495 135.289 365.192 132.132C365.115 131.993 365.008 131.874 364.877 131.783C364.747 131.692 364.598 131.633 364.441 131.609C363.74 131.633 363.208 132.11 362.648 132.679C360.762 134.607 356.781 139.446 355.546 140.771L312.622 143.861C312.3 142.499 311.413 138.96 310.909 137.635C310.85 137.469 310.754 137.319 310.629 137.196C310.504 137.073 310.352 136.979 310.185 136.924C310.019 136.868 309.842 136.85 309.667 136.873C309.493 136.896 309.326 136.958 309.18 137.054C308.252 137.575 302.711 142.316 301.881 143.017C293.995 143.537 255.745 145.884 247.909 145.213C254.333 131.295 264.179 119.232 276.528 110.151C303.261 90.0796 371.601 87.6859 402.875 98.7979C424.754 106.577 445.449 112.749 458.027 132.909C457.802 135.886 457.744 138.873 457.852 141.857C454.949 141.745 456.984 142.345 451.991 139.224C423.91 121.683 360.927 104.479 329.736 114.91C329.618 114.95 329.52 115.033 329.462 115.143C329.403 115.253 329.389 115.381 329.421 115.501C329.97 117.221 339.614 109.376 379.875 116.541C402.998 120.614 434.156 130.144 453.181 141.807C438.999 142.09 428.498 146.364 410.015 152.78C400.645 151.032 376.949 144.538 367.826 141.989ZM344.227 203.609C363.625 173.662 383.414 163.569 417.401 151.941C427.925 148.307 439.475 143.477 450.66 143.024C454.22 142.745 457.798 142.804 461.347 143.199C461.347 143.199 461.896 143.18 461.811 143.366C462.447 148.083 461.825 152.885 460.01 157.285C457.536 164.041 454.077 170.394 449.744 176.139C438.421 191.795 433.623 197.7 417.532 208.823C415.782 208.518 409.225 206.917 407.562 206.487C407.411 206.451 407.254 206.449 407.103 206.482C406.951 206.515 406.809 206.581 406.686 206.676C406.564 206.771 406.464 206.892 406.394 207.031C406.325 207.17 406.287 207.322 406.285 207.478L405.865 220.768C394.838 225.702 373.354 236.19 364.672 244.49C361.373 237.433 360.901 233.543 359.072 233.607C357.914 233.648 357.92 233.831 354.862 248.465C350.335 250.79 331.385 260.427 326.351 261.335C324.634 256.757 330.613 224.442 344.227 203.609ZM459.031 192.934C455.931 191.578 451.353 194.18 448.638 195.953C449.781 193.747 451.484 190.086 449.067 189.041C446.213 188.425 443.232 188.946 440.756 190.492C443.827 186.692 446.942 182.401 450.811 176.956C454.055 172.454 456.831 167.632 459.096 162.566C459.911 169.282 461.474 181.679 463.531 197.69C461.98 197.788 460.472 198.238 459.121 199.004C459.984 197.509 462.194 194.38 459.031 192.934ZM231.346 284.866C229.075 281.894 226.83 277.914 230.094 276.121C231.109 275.806 232.207 275.899 233.155 276.38C234.916 277.135 236.58 278.102 238.108 279.258C238.284 279.381 238.495 279.443 238.71 279.437C238.924 279.431 239.131 279.357 239.3 279.225C239.47 279.092 239.592 278.91 239.65 278.703C239.708 278.497 239.699 278.277 239.623 278.076C238.742 276.008 238.31 273.776 238.356 271.528C238.345 271.224 238.337 270.98 238.73 270.874C239.838 270.609 241 270.685 242.064 271.093C243.913 271.676 245.691 272.464 247.365 273.441C247.526 273.526 247.706 273.568 247.888 273.561C248.07 273.555 248.247 273.501 248.401 273.404C249.921 272.344 246.53 268.77 248.059 263.62C248.326 262.582 248.819 261.616 249.502 260.79C250.185 259.964 251.042 259.299 252.011 258.843C255.408 257.35 260.037 257.951 260.207 261.943L260.237 262.797C260.24 262.982 260.299 263.162 260.407 263.314C260.514 263.465 260.665 263.58 260.839 263.643C261.014 263.706 261.203 263.715 261.383 263.669C261.562 263.622 261.723 263.522 261.845 263.381C264.051 261.015 266.998 253.679 271.153 255.548C272.425 256.144 272.097 257.224 272.052 258.568C272.008 259.912 272.547 261.358 273.761 261.163C275.703 260.851 286.926 249.288 286.077 256.429C285.876 257.763 285.512 259.067 284.992 260.312C284.933 260.5 284.938 260.703 285.008 260.888C285.077 261.074 285.206 261.23 285.375 261.333C285.544 261.436 285.742 261.479 285.938 261.457C286.135 261.434 286.318 261.346 286.458 261.207C288.889 258.283 296.375 250.697 298.962 253.109C299.751 253.844 299.285 257.095 298.957 258.205C298.746 258.597 298.493 258.964 298.202 259.3C297.682 260.142 297.989 261.047 298.995 261.012C302.378 260.893 305.69 254.368 309.805 254.224C313.239 253.857 316.693 254.708 319.563 256.629C319.879 256.923 321.266 259.926 322.441 258.634C324.648 256.298 320.985 251.91 319.033 248.469C318.348 247.211 317.195 244.779 318.516 244.153C319.652 243.795 320.874 243.817 321.997 244.214C322.585 245.323 323.628 247.209 324.632 246.258C325.637 245.307 325.285 243.977 323.054 243.017C322.736 242.327 322.477 241.611 322.277 240.878C322.262 240.451 321.98 239.362 322.215 239.11C323.723 238.128 325.494 237.63 327.292 237.681C326.072 242.057 321.429 260.226 324.711 263.315C325.147 263.658 325.701 263.814 326.252 263.75C330.756 263.378 352.253 252.402 356.306 250.49C357.146 250.063 356.665 250.263 359.354 238.175C362.449 245.513 362.919 247.603 364.353 247.583C365.787 247.563 364.972 245.211 380.974 235.923C393.297 228.777 407.24 222.551 407.24 222.551C407.428 222.472 407.59 222.342 407.708 222.176C407.826 222.01 407.896 221.815 407.909 221.612L408.109 209.031C417.34 211.18 417.648 211.261 418.155 210.907C425.627 205.928 432.444 200.029 438.445 193.35C441.433 191.536 446.087 189.359 448.445 190.436C450.027 191.174 447.043 196.589 445.905 198.094C445.837 198.224 445.813 198.373 445.838 198.518C445.863 198.663 445.935 198.796 446.042 198.896C446.149 198.996 446.287 199.058 446.433 199.073C446.579 199.087 446.726 199.053 446.852 198.976C448.307 197.827 455.186 192.947 458.349 194.393C461.513 195.838 455.346 200.144 457.311 201.357C457.903 201.702 458.617 201.158 459.242 200.709C460.542 199.868 462.041 199.384 463.587 199.306C466.007 217.837 469.016 241.018 472.231 265.717C467.137 267.175 462.511 269.935 458.809 273.725C453.905 273.454 449.01 274.401 444.561 276.482C443 277.209 443.418 278.689 445.002 278.603C444.636 278.616 445.916 278.571 448.069 279.045C448.853 278.774 280.183 283.308 231.346 284.866ZM466.263 341.032C466.263 341.032 467.287 341.515 468.624 342.231C463.266 346.081 451.425 353.058 450.375 355.322C450.247 355.647 450.232 356.005 450.332 356.339C450.433 356.673 450.642 356.964 450.928 357.165C451.72 357.991 451.514 357.358 451.434 358.551L451.619 363.824C451.41 366.566 450.933 369.282 450.194 371.931C448.813 372.315 447.346 372.248 446.006 371.742C438.424 368.742 433.965 363.435 434.472 355.238C438.271 355.655 440.457 356.219 441.191 356.254C441.924 356.29 443.859 354.879 441.511 354.076C440.091 353.607 439.566 336.871 441.392 337.6C441.503 337.618 441.618 337.597 441.715 337.541C441.813 337.484 441.888 337.395 441.927 337.289C441.967 337.184 441.968 337.067 441.932 336.961C441.895 336.854 441.823 336.763 441.727 336.704C444.613 331.964 444.616 332.055 444.593 331.415C444.546 331.261 444.464 331.12 444.354 331.003C444.244 330.885 444.109 330.793 443.959 330.735C442.782 330.152 441.775 329.275 441.037 328.189C440.298 327.103 439.853 325.844 439.744 324.535C439.528 322.565 439.686 320.571 440.21 318.659C441.393 319.162 442.679 319.374 443.961 319.276C445.243 319.178 446.483 318.773 447.575 318.096C446.981 319.429 446.335 321.008 447.287 322.073C448.023 322.78 448.971 323.225 449.984 323.338C450.998 323.452 452.021 323.228 452.894 322.701C452.95 322.677 453 322.642 453.042 322.599C453.083 322.556 453.116 322.505 453.139 322.449C453.161 322.393 453.171 322.333 453.17 322.273C453.169 322.212 453.157 322.153 453.133 322.098C453.109 322.042 453.074 321.992 453.031 321.95C452.987 321.909 452.936 321.876 452.88 321.854C452.824 321.831 452.764 321.821 452.704 321.822C452.644 321.823 452.584 321.835 452.529 321.859C451.298 321.95 450.078 321.579 449.105 320.82C449.88 318.678 450.828 316.604 451.94 314.617C455.258 316.118 454.988 314.51 454.68 316.169C454.063 323.82 462.835 325.954 467.931 320.709C468.774 319.759 469.495 318.709 470.08 317.582C470.961 317.73 471.865 317.635 472.695 317.308C474.409 318.316 474.174 317.714 474.115 318.631C474.07 319.066 474.138 319.504 474.312 319.905C474.487 320.305 474.762 320.653 475.111 320.916C475.186 321.266 475.198 321.628 475.148 321.983C470.725 324.671 470.947 323.167 470.265 325.48C468.68 326.39 468.802 328.126 468.46 329.694C468.301 330.402 466.593 337.389 465.918 339.915C465.863 340.11 465.866 340.317 465.927 340.51C465.988 340.703 466.105 340.874 466.262 341.002L466.263 341.032ZM452.754 358.779C454.481 359.954 455.733 361.707 456.284 363.722C456.786 365.84 456.377 366.373 456.83 367.09C456.986 367.313 457.204 367.486 457.457 367.587C455.798 369.114 453.919 370.384 451.882 371.353C452.432 368.918 452.805 366.447 452.997 363.959C453.08 362.857 452.726 360.581 452.753 358.749L452.754 358.779ZM452.647 355.731C455.955 352.563 469.524 343.512 471.149 341.136C473.36 342.371 476.691 344.268 478.785 345.66C472.86 350.75 465.185 357.306 458.58 363.916C458.006 359.724 455.702 358.432 452.773 355.818L452.647 355.731ZM390.104 418.166C399.177 417.433 408.202 416.19 417.135 414.442C421.376 421.345 426.557 427.625 432.53 433.099C438.748 438.441 445.756 442.787 453.306 445.982C449.103 454.064 442.099 464.961 434.751 470.376L413.804 459.604C411.452 452.575 410.47 446.323 407.944 439.545C406.441 434.889 403.651 430.754 399.896 427.619C397.146 424.908 390.432 418.795 389.985 418.231C389.537 417.667 389.957 418.323 390.104 418.166ZM416.358 412.272C409.869 413.475 392.384 416.163 386.331 415.856C387.129 404.181 387.177 392.467 386.476 380.785C391.185 384.557 397.556 389.553 403.683 394.587C401.162 395.465 399.007 397.163 397.565 399.41C397.388 399.801 397.303 400.228 397.317 400.658C397.331 401.087 397.443 401.508 397.645 401.887C397.847 402.266 398.133 402.594 398.482 402.845C398.831 403.096 399.232 403.263 399.656 403.335C400.093 403.382 400.534 403.367 400.967 403.289C400.851 403.728 400.835 404.187 400.919 404.632C401.003 405.078 401.186 405.5 401.454 405.866C401.926 406.552 402.593 407.081 403.369 407.386C403.703 407.436 404.044 407.424 404.374 407.35C404.31 407.653 404.321 407.967 404.406 408.265C405.191 413.243 410.006 410.419 414.641 408.578C416.93 407.704 416.904 407.827 418.377 408.935L416.358 412.272ZM438.958 353.494C435.531 352.747 432.023 352.439 428.519 352.578C427.117 352.627 427.281 352.957 427.33 352.62C427.707 348.578 429.357 337.29 431.993 334.145L440.33 336.905C438.405 339.445 437.867 349.352 438.901 353.618L438.958 353.494ZM438.317 335.206C437.325 334.752 432.923 332.8 432.114 332.371C431.306 331.942 430.986 332.41 430.375 333.256L429.363 333.108L437.449 323.486C437.445 325.042 437.792 326.579 438.465 327.982C439.138 329.386 440.118 330.619 441.334 331.59L438.317 335.206ZM429.411 334.48C427.619 337.974 426.41 341.738 425.834 345.622C425.235 348.657 424.853 351.73 424.691 354.818C424.688 354.976 424.717 355.132 424.777 355.278C424.837 355.423 424.926 355.555 425.038 355.666C425.15 355.776 425.284 355.862 425.431 355.919C425.578 355.976 425.735 356.003 425.892 355.997C427.731 354.948 429.887 354.602 431.961 355.021C431.708 358.141 432.259 361.274 433.562 364.121C424.349 374.196 414.609 383.777 404.384 392.823L386.235 379.146C386.109 375.549 385.994 372.257 385.657 369.614C385.141 362.734 384.956 362.68 384.069 361.734C381.628 359.441 379.014 357.338 376.249 355.447C391.081 345.863 411.463 332.667 429.565 334.536L429.411 334.48ZM416.524 406.559C414.481 406.63 409.687 409.148 407.094 409.178C406.545 409.197 406.369 408.532 406.319 407.984C408.158 405.6 413.315 404.687 413.25 402.828C413.25 402.828 412.679 401.353 411.539 401.911C409.112 403.229 406.579 404.339 403.964 405.229C403.727 405.048 403.523 404.828 403.362 404.578C403.102 404.13 403.343 404.03 403.338 403.908C405.565 402.276 408.018 400.977 410.619 400.051C410.865 399.903 411.048 399.67 411.136 399.397C411.224 399.124 411.209 398.828 411.096 398.564C410.983 398.301 410.778 398.087 410.519 397.962C410.261 397.838 409.966 397.811 409.689 397.887C406.375 399.132 406.268 399.563 403.674 400.417C402.858 400.659 399.992 401.614 399.6 400.865C399.207 400.115 401.166 398.521 402.002 398.003C405.326 395.959 409.069 394.691 412.951 394.293C416.365 394.174 416.707 394.375 424.017 399.185L418.921 407.909C418.275 407.23 417.44 406.759 416.524 406.559ZM417.3 393.012C414.041 392.107 410.582 392.229 407.394 393.359C416.988 384.715 426.051 375.501 434.535 365.765C437.059 369.583 440.776 372.458 445.106 373.94C446.431 374.458 447.862 374.649 449.276 374.496C445.083 384.592 432.018 390.604 429.111 395.619L427.834 394.901C427.586 394.76 427.292 394.721 427.015 394.794C426.738 394.866 426.5 395.044 426.353 395.289L424.683 398.155C421.893 396.055 418.451 393.612 417.301 393.042L417.3 393.012ZM469.152 305.011C469.188 306.047 468.388 306.746 468.466 308.087C468.477 308.592 468.592 309.089 468.802 309.549C469.012 310.009 469.314 310.421 469.689 310.76C470.148 311.095 470.638 311.384 471.153 311.624C471.388 311.697 471.602 311.826 471.777 311.999C471.395 312.988 471.144 314.023 471.03 315.077L470.786 315.086C471.248 313.452 470.893 312.03 469.839 311.579C465.763 309.882 461.308 309.301 456.932 309.894C456.14 309.922 455.253 312.486 455.008 313.349C454.04 312.802 452.998 312.396 451.914 312.145C452.412 310.663 452.156 309.451 451.22 308.874C448.919 307.624 446.373 306.89 443.759 306.724L444.341 305.056C445.095 304.699 445.723 304.124 446.145 303.406C446.813 302.436 447.949 300.016 448.355 300.276C449.279 300.519 450.376 302.22 452.659 300.309C453.439 299.518 454.154 298.666 454.798 297.762C455.741 298.325 456.716 298.831 457.72 299.277C459.655 299.636 460.964 297.79 461.747 297.488C462.16 297.962 462.863 298.853 463.052 299.029C463.566 299.381 464.155 299.61 464.771 299.699C465.388 299.789 466.017 299.736 466.61 299.545C466.105 302.554 467.646 302.988 469.122 305.042L469.152 305.011ZM473.507 283.861C467.496 281.549 461.309 279.725 455.005 278.406C453.746 278.175 445.085 277.502 444.778 277.451L445.137 277.225C450.143 275.065 455.685 274.467 461.038 275.509C472.27 278.167 491.013 286.117 497.753 295.586C500.122 298.567 502.057 301.87 503.499 305.395C500.451 303.016 497.585 300.413 494.925 297.607C488.866 291.521 481.545 286.839 473.478 283.893L473.507 283.861ZM497.293 286.812C497.341 288.184 497.053 289.537 496.948 290.883C488.938 282.649 470.241 275.125 460.33 273.611C470.791 264.699 482.823 264.919 490.096 270.401C492.501 272.384 494.404 274.907 495.649 277.764C496.895 280.621 497.448 283.732 497.264 286.844L497.293 286.812ZM406.243 282.097C451.691 280.505 447.607 280.648 447.282 280.965L445.819 281.016C444.1 281.452 442.577 282.451 441.493 283.853C439.965 286.409 440.419 286.302 440.644 288.369C440.083 288.924 439.592 289.546 439.183 290.221C438.687 291.029 438.424 291.959 438.425 292.907C438.426 293.856 438.69 294.785 439.188 295.592C438.937 296.273 438.381 296.963 438.163 297.703C438.032 298.07 438.007 298.466 438.09 298.846C438.174 299.227 438.363 299.576 438.635 299.854C438.853 300.016 439.082 300.161 439.322 300.288C439.432 300.329 439.529 300.4 439.604 300.491C439.473 301.106 439.092 301.577 438.992 302.191C438.963 302.628 439.047 303.065 439.238 303.46C439.428 303.855 439.718 304.193 440.078 304.442C440.762 304.915 441.492 305.319 442.256 305.648L441.925 306.636L439.7 306.714C439.09 306.735 438.259 308.29 438.004 308.848C437.205 310.141 436.806 311.642 436.859 313.161C436.913 314.68 437.415 316.15 438.303 317.383C437.874 318.754 437.586 320.165 437.444 321.594L427.564 333.171C418.828 333.13 410.184 334.952 402.207 338.515C392.466 342.863 383.148 348.104 374.373 354.17C370.587 351.495 366.211 348.535 362.401 346.074C389.09 337.815 426.268 298.761 406.243 282.097ZM332.767 329.503C342.952 334.487 376.986 357.313 382.467 363.072C383.071 363.753 383.108 363.05 383.588 369.808C384.324 380.342 385.268 404.693 384.045 415.082C383.137 414.412 335.279 379.435 332.528 377.578C332.181 372.891 332.028 334.534 332.767 329.503ZM231.252 445.978C231.039 445.985 230.886 445.991 230.788 445.811C230.691 445.631 230.746 444.592 231.15 443.937C232.75 440.829 236.58 438.65 241.816 433.034C243.052 431.843 244.039 430.418 244.721 428.843C245.064 427.305 245.508 420.82 245.627 418.984L263.337 418.364C262.519 423.733 261.432 429.057 260.08 434.317C255.827 436.603 236.105 446.876 231.252 445.978ZM255.774 449.026C253.152 449.117 236.919 450.052 234.437 449.773C234.308 449.182 234.287 448.573 234.374 447.974C240.39 446.37 246.215 444.119 251.748 441.262L260.892 440.942C259.149 443.444 257.505 446.188 255.865 449.022L255.774 449.026ZM277.336 416.378C271.494 423.673 266.195 431.386 261.481 439.456L254.019 439.87C258.006 437.838 260.969 436.148 261.358 435.951C261.681 435.728 261.925 435.41 262.059 435.041C263.294 429.476 264.177 423.839 264.703 418.163C268.543 418.029 269.915 417.981 270.247 416.993C271.147 414.825 287.78 380.855 290.461 375.481C291.436 375.447 289.458 373.868 304.693 392.317C319.067 387.968 332.197 387.295 352.349 394.524L359.303 399.652C346.299 394.339 332.268 390.192 318.122 391.481C312.154 392.004 306.26 393.173 300.543 394.965C291.511 400.226 284.35 408.381 277.428 416.375L277.336 416.378ZM289.338 479.345C299.832 467.014 308.857 455.437 316.354 447.3L332.57 446.732C321.502 460.09 310.436 473.509 300.775 485.231C296.89 483.474 293.103 481.508 289.43 479.342L289.338 479.345ZM275.673 533.567C272.604 533.771 269.574 532.784 267.214 530.812C270.378 525.299 305.017 483.465 335.52 446.446L347.713 446.019C285.374 522.119 276.478 533.02 275.673 533.567ZM314.31 490.006C324.87 476.971 337.16 461.892 350.094 446.027C354.422 445.875 357.446 445.952 358.641 446.094C368.832 463.438 389.763 469.418 409.729 471.344L426.357 479.917C417.432 485.283 407.693 489.159 397.522 491.395C371.366 497.469 335.402 496.226 314.31 490.006ZM426.905 480.752L407.396 506.675L385.114 495.248C399.893 493.342 414.12 488.408 426.905 480.752ZM367.627 497.02C372.901 496.835 377.795 496.297 382.382 495.679L406.166 508.152L402.083 513.575L367.627 497.02ZM451.244 531.751C450.713 533.245 449.994 534.665 449.104 535.977C446.436 534.758 430.793 527.279 413.379 518.917L417.232 513.899L451.244 531.751ZM376.043 563.012C373.907 562.535 371.946 561.473 370.381 559.944C370.554 559.664 396.62 524.905 429.397 481.336L436.607 485.021C394.339 539.94 378.055 561.202 376.043 563.012ZM546.487 530.704C545.6 532.857 544.54 534.936 543.317 536.919C534.017 532.789 366.157 445.464 359.397 444.145C356.014 443.409 320.411 445.51 316.51 445.647L323.327 438.145C327.015 438.015 361.52 436.807 364.35 437.44C373.589 439.802 545.359 530.743 546.457 530.705L546.487 530.704ZM444.167 475.204L436.928 471.551C444.292 465.708 451.092 455.093 455.379 446.795C458.236 447.785 461.198 448.439 464.207 448.744C464.634 448.759 465.478 447.57 444.137 475.205L444.167 475.204ZM499.377 424.714C496.624 431.26 492 436.848 486.084 440.775C468.186 452.572 450.619 445.069 433.871 431.312C427.94 425.852 422.801 419.592 418.601 412.712L427.552 397.291C456.518 413.093 453.514 410.97 460.885 414.893C461.474 415.177 462.126 415.49 463.681 416.321L466.949 418.129C469.189 419.332 468.62 419.658 469.292 419.665C470.481 419.623 469.211 417.348 467.296 415.828C464.865 414.2 462.209 412.936 459.413 412.076C464.7 402.279 470.543 392.791 476.912 383.66C476.985 383.561 477.016 383.436 476.997 383.313C476.979 383.191 476.912 383.081 476.812 383.008C476.713 382.934 476.588 382.903 476.466 382.922C476.343 382.941 476.233 383.007 476.16 383.107C469.519 392.165 463.409 401.601 457.862 411.367C454.047 409.639 434.28 398.551 430.606 396.483C433.28 391.781 446.97 385.319 450.911 374.103C457.831 372.152 464.699 363.488 468.641 357.521L479.867 346.934C485.736 350.719 490.517 355.969 493.737 362.166C499.369 373.482 502.627 385.831 503.31 398.453C504.138 407.396 502.788 416.406 499.377 424.714ZM558.513 309.449C560.891 309.366 566.16 310.799 567.071 312.415C567.296 312.743 562.492 320.235 505.189 395.488C504.824 391.306 504.149 387.157 503.168 383.076C533.728 342.454 557.668 310.577 558.544 309.448L558.513 309.449ZM549.706 319.402C540.044 331.948 522.796 354.464 502.632 380.837C500.808 374.175 498.332 367.709 495.241 361.533C491.878 355.255 486.951 349.951 480.938 346.134C481.057 345.945 481.099 345.718 481.058 345.499C481.016 345.279 480.893 345.084 480.713 344.951C478.218 343.421 473.813 341.378 471.39 340.151C471.324 340.118 471.251 340.102 471.177 340.103C471.104 340.104 471.031 340.123 470.967 340.158C470.902 340.194 470.847 340.244 470.806 340.305C470.765 340.366 470.739 340.436 470.731 340.51L468.245 339.254L470.013 333.088C470.751 333.566 471.599 333.849 472.477 333.909C473.355 333.969 474.233 333.804 475.03 333.431C475.39 333.152 475.707 332.822 475.972 332.452C476.849 332.95 477.835 333.222 478.842 333.245C479.849 333.269 480.847 333.042 481.745 332.586C483.001 331.726 484.011 330.555 484.678 329.187C485.314 328.188 485.43 328.001 487.199 327.969C488.919 328.177 490.652 327.712 492.036 326.671C493.558 324.981 494.357 322.761 494.261 320.489C495.801 319.794 497.087 318.639 497.944 317.182C498.8 315.726 499.184 314.04 499.043 312.356C510.44 313.636 538.325 316.84 549.709 319.493L549.706 319.402ZM499.701 198.712C500.288 197.196 501.736 197.573 503.225 198.253C504.714 198.933 504.791 200.273 505.088 201.789C506.704 209.576 515.208 197.955 517.904 201.737C519.15 203.653 519.634 205.966 519.261 208.22C518.704 209.299 518.078 210.34 517.386 211.338C517.26 211.501 517.195 211.703 517.203 211.909C517.21 212.115 517.289 212.312 517.426 212.466C519.886 214.76 526.329 210.506 528.917 212.948C529.965 214.118 530.652 215.565 530.895 217.116C531.139 218.667 530.93 220.255 530.292 221.689C529.486 223.945 527.573 225.966 528.097 226.985C528.621 228.004 529.19 227.71 529.865 226.923C530.539 226.136 537.569 223.815 538.939 224.591C539.328 224.885 539.648 225.259 539.879 225.688C540.11 226.117 540.246 226.591 540.277 227.077C540.645 229.75 539.234 230.41 538.453 231.627C537.671 232.845 538.191 233.742 539.349 233.702C543.19 233.567 547.665 228.009 551.419 229.769C552.381 230.224 551.538 233.153 550.786 234.339C550.034 235.525 549.378 235.975 549.714 236.848C550.385 238.595 553.737 236.707 555.352 235.766C558.673 233.849 561.746 231.849 563.992 234.975C565.214 236.866 565.696 239.142 565.345 241.367C565.214 241.982 563.811 243.74 563.714 244.476C563.516 245.795 565.077 245.923 566.349 245.635C568.984 245.054 573.924 242.318 574.071 243.899C574.149 246.125 570.729 251.31 570.773 252.56C570.813 252.845 570.958 253.104 571.178 253.288C571.399 253.472 571.68 253.568 571.967 253.556C572.272 253.545 579.232 252.722 579.663 252.829C584.49 253.85 579.734 260.09 582.069 262.266C583.584 263.708 586.153 262.123 588.354 261.344C588.598 261.336 589.351 261.065 589.482 261.305C590.364 262.952 586.205 264.471 584.531 265.476C582.857 266.481 582.98 268.246 584.089 268.543C584.618 268.6 585.151 268.582 585.674 268.488C588.758 269.387 589.306 272.847 589.327 276.051C585.022 275.988 526.428 276.056 526.215 276.064C518.937 251.939 510.045 228.331 499.599 205.399C499.255 203.181 499.289 200.919 499.701 198.712ZM530.444 298.347C524.163 299.28 517.941 300.578 511.811 302.235C510.059 302.754 508.523 303.326 507.256 303.767C507.136 303.796 507.032 303.871 506.967 303.976C506.902 304.082 506.881 304.209 506.91 304.329C506.938 304.449 507.014 304.554 507.119 304.619C507.224 304.684 507.351 304.704 507.471 304.676L510.329 304.362C515.399 303.711 520.413 302.678 525.328 301.273C527.148 300.691 528.937 300.017 530.689 299.254C532.131 304.392 533.516 309.664 534.844 315.07C529.785 314.392 504.997 311.568 498.534 310.909C498.476 310.361 498.244 309.845 497.872 309.437C498.54 308.007 499.041 306.505 499.363 304.96C500.511 306.064 501.773 307.043 503.128 307.88C504.52 308.411 506.524 307.242 505.529 304.103C503.833 300.304 501.657 296.739 499.053 293.495C499.132 291.387 499.425 289.301 499.592 287.098C499.881 282.699 498.79 278.32 496.47 274.571C494.15 270.823 490.718 267.892 486.652 266.188C482.93 264.937 478.969 264.564 475.078 265.098C474.089 257.778 473.093 250.244 472.072 242.894C473.315 242.865 474.555 242.761 475.785 242.581C481.916 241.602 487.933 240.011 493.746 237.832C493.867 237.804 493.971 237.728 494.036 237.623C494.101 237.518 494.122 237.391 494.093 237.271C494.065 237.15 493.989 237.046 493.884 236.981C493.779 236.916 493.652 236.895 493.532 236.924C486.188 237.782 478.953 239.396 471.94 241.739C465.117 191.561 462.634 177.305 460.951 158.015C462.015 154.935 462.682 151.733 462.936 148.484C467.846 155.177 472.178 162.274 475.887 169.699C476.115 170.118 476.326 170.05 478.635 170.61C501.256 208.271 518.486 254.941 530.446 298.408L530.444 298.347ZM477.067 168.528C473.102 160.803 468.389 153.486 462.995 146.682C463.032 145.477 462.928 144.272 462.686 143.091C462.635 142.945 462.547 142.815 462.431 142.712C462.316 142.61 462.176 142.538 462.025 142.504C470.896 140.484 494.008 135.524 503.179 135.966C543.591 137.846 571.551 147.579 594.077 180.757C601.251 191.279 599.506 210.292 594.751 220.042C594.302 221.006 593.716 221.9 593.013 222.697C589.553 219.766 571.873 202.074 568.59 198.954L566.892 187.935C566.859 187.765 566.79 187.604 566.689 187.463C566.587 187.322 566.456 187.205 566.305 187.121C566.154 187.036 565.986 186.985 565.813 186.972C565.64 186.959 565.466 186.984 565.304 187.045L556.283 190.901L522.706 178.496C518.069 167.245 518.384 167.508 517.616 167.383C516.849 167.257 517.212 167.153 509.246 175.855L477.067 168.528Z" fill="black"/>
</svg>
